<svg width="65" height="65" viewBox="0 0 65 65" fill="none" xmlns="http://www.w3.org/2000/svg">
<rect width="65" height="65" rx="4" fill="#30D9CF"/>
<g filter="url(#filter0_d)">
<path d="M45.9712 23.3808C45.5114 20.6486 44.1585 18.155 42.0895 16.2628C39.7905 14.1583 36.8018 13 33.6893 13C31.2842 13 28.941 13.6897 26.9338 14.9895C25.2626 16.0683 23.8744 17.5272 22.8929 19.2426C22.4684 19.1631 22.0263 19.1189 21.5842 19.1189C17.8262 19.1189 14.7668 22.1783 14.7668 25.9362C14.7668 26.4226 14.8199 26.8912 14.9083 27.351C12.4767 29.1195 11 31.9667 11 34.9996C11 37.4489 11.9108 39.8275 13.5731 41.7109C15.2797 43.6385 17.5344 44.7791 19.9395 44.9118C19.9661 44.9118 19.9838 44.9118 20.0103 44.9118H27.6146C28.2778 44.9118 28.8083 44.3812 28.8083 43.7181C28.8083 43.0549 28.2778 42.5243 27.6146 42.5243H20.0457C16.4292 42.3033 13.3874 38.8636 13.3874 34.9907C13.3874 32.4884 14.7314 30.154 16.8978 28.8896C17.4018 28.5978 17.614 27.9877 17.4195 27.4394C17.2426 26.9619 17.1542 26.4579 17.1542 25.9186C17.1542 23.4781 19.1437 21.4886 21.5842 21.4886C22.1059 21.4886 22.6188 21.577 23.0962 21.7538C23.6798 21.9661 24.3253 21.7008 24.5906 21.1437C26.2441 17.6334 29.8164 15.3697 33.6981 15.3697C38.9151 15.3697 43.2213 19.278 43.7164 24.4596C43.7695 24.999 44.1762 25.4322 44.7068 25.5207C48.6416 26.1927 51.6126 29.8268 51.6126 33.9739C51.6126 38.3685 48.1553 42.1883 43.8933 42.5155H37.3765C36.7133 42.5155 36.1828 43.046 36.1828 43.7092C36.1828 44.3724 36.7133 44.9029 37.3765 44.9029H43.9375C43.964 44.9029 43.9905 44.9029 44.0259 44.9029C46.7228 44.7084 49.2429 43.4705 51.1174 41.4014C52.9831 39.35 54 36.715 54 33.9739C53.9912 29.0134 50.6046 24.6011 45.9712 23.3808Z" fill="white"/>
<path d="M25.3422 48.6146C24.8735 49.0833 24.8735 49.8349 25.3422 50.3035L31.6644 56.6257C31.8855 56.8468 32.1949 56.9794 32.5044 56.9794C32.8139 56.9794 33.1234 56.8556 33.3444 56.6257L39.6667 50.3035C40.1353 49.8349 40.1353 49.0833 39.6667 48.6146C39.4368 48.3847 39.1273 48.2609 38.8267 48.2609C38.526 48.2609 38.2165 48.3759 37.9866 48.6146L33.6981 52.9031L33.6981 33.1937C33.6981 32.5305 33.1676 32 32.5044 32C31.8413 32 31.3107 32.5305 31.3107 33.1937L31.3107 52.9031L27.0222 48.6146C26.5624 48.146 25.8108 48.146 25.3422 48.6146Z" fill="white"/>
</g>
<defs>
<filter id="filter0_d" x="9" y="11" width="51" height="51.9794" filterUnits="userSpaceOnUse" color-interpolation-filters="sRGB">
<feFlood flood-opacity="0" result="BackgroundImageFix"/>
<feColorMatrix in="SourceAlpha" type="matrix" values="0 0 0 0 0 0 0 0 0 0 0 0 0 0 0 0 0 0 127 0"/>
<feOffset dx="2" dy="2"/>
<feGaussianBlur stdDeviation="2"/>
<feColorMatrix type="matrix" values="0 0 0 0 0 0 0 0 0 0 0 0 0 0 0 0 0 0 0.25 0"/>
<feBlend mode="normal" in2="BackgroundImageFix" result="effect1_dropShadow"/>
<feBlend mode="normal" in="SourceGraphic" in2="effect1_dropShadow" result="shape"/>
</filter>
</defs>
</svg>
