<svg height="512pt" viewBox="0 -5 512.0007 512" width="512pt" xmlns="http://www.w3.org/2000/svg"><path d="m134.050781 459.402344 5.675781 20.011718c3.664063 12.90625 15.449219 21.816407 28.867188 21.816407h169.847656c13.414063 0 25.203125-8.910157 28.863282-21.816407l5.675781-20.011718zm0 0" fill="#c9f0ff"/><path d="m327.015625 274.042969c31.851563-.265625 58.488281-26.542969 58.171875-58.394531-.171875-17.199219-7.84375-32.570313-19.882812-43.042969-2.671876-2.324219-2.707032-6.421875-.074219-8.789063 12.011719-10.804687 19.46875-26.554687 19.164062-44.015625-.542969-30.945312-25.878906-56.265625-56.828125-56.777343-2.070312-.03125-4.117187.042968-6.132812.222656-3.449219.308594-6.367188-2.386719-6.390625-5.847656 0-.023438 0-.046876 0-.070313-.265625-31.921875-26.359375-57.589844-58.285157-57.32421875-31.925781.26171875-57.59375 26.35937475-57.328124 58.28515575v.066407c.035156 3.464843-2.839844 6.203125-6.289063 5.953125-2.019531-.144532-4.066406-.1875-6.136719-.121094-30.9375 1.027344-55.851562 26.761719-55.878906 57.710938-.015625 17.464843 7.699219 33.089843 19.886719 43.691406 2.671875 2.324218 2.703125 6.421875.070312 8.792968-11.863281 10.667969-19.28125 26.164063-19.167969 43.367188.210938 31.847656 27.28125 57.683594 59.132813 57.417969zm0 0" fill="#00b965"/><path d="m299.761719 64.0625c0 20.203125-16.375 36.578125-36.578125 36.578125-20.199219 0-36.578125-16.375-36.578125-36.578125 0-20.199219 16.378906-36.574219 36.578125-36.574219 20.203125 0 36.578125 16.375 36.578125 36.574219zm0 0" fill="#00a855"/><path d="m229.660156 314.554688c31.460938-4.996094 53.898438-34.941407 48.847656-66.390626-2.726562-16.984374-12.601562-31.042968-26.0625-39.609374-2.984374-1.898438-3.632812-5.949219-1.378906-8.679688 10.273438-12.46875 15.304688-29.15625 12.40625-46.375-5.136718-30.523438-33.953125-51.792969-64.632812-47.699219-2.054688.273438-4.066406.652344-6.035156 1.132813-3.363282.816406-6.648438-1.414063-7.1875-4.832032-.003907-.023437-.007813-.046874-.011719-.070312-5.007813-31.53125-34.628907-53.035156-66.160157-48.027344-31.53125 5.007813-53.03125 34.628906-48.023437 66.160156.003906.023438.007813.046876.011719.070313.546875 3.417969-1.886719 6.554687-5.339844 6.820313-2.015625.15625-4.046875.417968-6.085938.792968-30.4375 5.613282-51.25 34.765625-46.679687 65.375 2.582031 17.273438 12.535156 31.578125 26.164063 40.25 2.988281 1.902344 3.628906 5.949219 1.375 8.683594-10.144532 12.3125-15.175782 28.742188-12.507813 45.734375 4.945313 31.464844 35.554687 52.988281 67.011719 47.992187zm0 0" fill="#6fd6a2"/><path d="m285.894531 176.085938c-4.496093-19.578126-18.910156-50.667969-65.035156-57.5-3.101563-.460938-6.242187.792968-8.171875 3.269531-28.683594 36.765625-17.675781 69.214843-7.421875 86.492187 3.339844 5.628906-.289063 12.859375-6.816406 13.375-38.035157 3.011719-63.050781 23.210938-72.757813 32.597656-2.851562 2.761719-3.457031 7.089844-1.574218 10.589844 16.460937 30.597656 38.320312 45.664063 57.609374 52.953125 19.921876 7.523438 41.980469 7.082031 61.753907-.832031l44.855469-17.945312 44.886718-17.960938c19.164063-7.667969 35.128906-21.871094 44.425782-40.300781 9.421874-18.683594 15.480468-45.230469 6.011718-79.761719-1.050781-3.828125-4.472656-6.546875-8.441406-6.578125-13.5-.101563-45.546875 2.527344-75.164062 26.585937-5.082032 4.128907-12.695313 1.394532-14.160157-4.984374zm0 0" fill="#43cd8e"/><path d="m157.054688 196.210938c0 23.667968-19.1875 42.855468-42.855469 42.855468-23.664063 0-42.851563-19.1875-42.851563-42.855468 0-23.664063 19.1875-42.851563 42.851563-42.851563 23.667969 0 42.855469 19.1875 42.855469 42.851563zm0 0" fill="#43cd8e"/><path d="m141.421875 204.03125c0 19.347656-15.6875 35.035156-35.035156 35.035156-19.351563 0-35.039063-15.6875-35.039063-35.035156 0-19.351562 15.6875-35.039062 35.039063-35.039062 19.347656 0 35.035156 15.6875 35.035156 35.039062zm0 0" fill="#ea4444"/><path d="m141.417969 204.027344c0 19.355468-15.683594 35.035156-35.035157 35.035156-12.273437 0-23.070312-6.304688-29.332031-15.867188 3.6875 1.320313 7.664063 2.039063 11.8125 2.039063 19.351563 0 35.035157-15.683594 35.035157-35.035156 0-7.074219-2.09375-13.664063-5.707032-19.167969 13.542969 4.847656 23.226563 17.792969 23.226563 32.996094zm0 0" fill="#d93131"/><path d="m280.742188 62.480469c0 15.039062-12.191407 27.230469-27.230469 27.230469-15.039063 0-27.230469-12.191407-27.230469-27.230469 0-15.039063 12.191406-27.230469 27.230469-27.230469 15.039062 0 27.230469 12.191406 27.230469 27.230469zm0 0" fill="#ea4444"/><path d="m280.742188 62.480469c0 15.039062-12.191407 27.230469-27.230469 27.230469-9.539063 0-17.929688-4.902344-22.796875-12.332032 2.867187 1.023438 5.957031 1.582032 9.179687 1.582032 15.042969 0 27.230469-12.1875 27.230469-27.230469 0-5.496094-1.625-10.617188-4.433594-14.898438 10.523438 3.769531 18.050782 13.832031 18.050782 25.648438zm0 0" fill="#d93131"/><path d="m321.351562 357.160156c19.085938 25.5 56.039063 31.386719 81.503907 12.257813 13.757812-10.328125 21.589843-25.621094 22.894531-41.519531.289062-3.53125 3.566406-5.988282 7.035156-5.269532 15.820313 3.273438 32.925782-.054687 46.8125-10.644531 24.605469-18.773437 29.988282-54.1875 12.0625-79.417969-1.199218-1.691406-2.472656-3.292968-3.8125-4.8125-2.289062-2.59375-1.851562-6.539062.921875-8.609375.019531-.015625.039063-.027343.058594-.042969 25.558594-19.128906 30.773437-55.359374 11.640625-80.921874-19.128906-25.558594-55.359375-30.773438-80.917969-11.640626-.019531.011719-.039062.027344-.058593.042969-2.765626 2.078125-6.675782 1.386719-8.519532-1.542969-1.078125-1.714843-2.257812-3.386718-3.542968-5.015624-19.152344-24.3125-54.644532-29.132813-79.59375-10.816407-14.078126 10.335938-22.09375 25.808594-23.410157 41.910157-.289062 3.53125-3.574219 5.984374-7.042969 5.265624-15.621093-3.234374-32.5-.027343-46.289062 10.253907-25.535156 19.042969-30.304688 56.15625-11.21875 81.660156zm0 0" fill="#6fd6a2"/><path d="m297.335938 184.308594c-3.996094-17.410156-16.8125-45.054688-57.824219-51.128906-2.761719-.410157-5.554688.707031-7.269531 2.90625-25.503907 32.691406-15.714844 61.546874-6.601563 76.90625 2.972656 5.007812-.253906 11.433593-6.054687 11.894531-33.824219 2.675781-56.066407 20.636719-64.695313 28.984375-2.539063 2.453125-3.074219 6.304687-1.402344 9.414062 14.636719 27.207032 34.074219 40.605469 51.226563 47.082032 17.714844 6.691406 37.328125 6.296874 54.90625-.738282l39.886718-15.957031 39.90625-15.96875c17.042969-6.816406 31.238282-19.449219 39.503907-35.835937 8.378906-16.609376 13.765625-40.214844 5.347656-70.917969-.9375-3.402344-3.980469-5.820313-7.507813-5.847657-12.003906-.089843-40.5 2.246094-66.832031 23.640626-4.515625 3.667968-11.285156 1.238281-12.589843-4.433594zm0 0" fill="#fbc700"/><path d="m287.578125 243.542969c-7.984375 1.769531-12.570313 10.386719-9.441406 18.046875 16.375 40.128906 59.347656 63.882812 102.605469 54.289062 43.257812-9.59375 72.15625-49.289062 70.035156-92.578125-.40625-8.261719-8.203125-14.132812-16.1875-12.363281zm0 0" fill="#fef1da"/><path d="m302.210938 240.296875c5.425781 24.476563 29.4375 39.96875 53.628906 34.605469 24.191406-5.363282 39.402344-29.558594 33.972656-54.035156zm0 0" fill="#fbc700"/><path d="m389.070312 462.488281h-271.109374c-54.714844 0-99.070313-44.355469-99.070313-99.070312h469.25c0 54.714843-44.355469 99.070312-99.070313 99.070312zm0 0" fill="#64dcfc"/><path d="m488.144531 363.421875c0 27.363281-11.089843 52.125-29.015625 70.050781-17.925781 17.925782-42.699218 29.019532-70.054687 29.019532h-271.109375c-34.085938 0-64.152344-17.214844-81.988282-43.425782 16.8125 13.140625 37.984376 20.976563 60.972657 20.976563h271.109375c27.351562 0 52.125-11.089844 70.050781-29.015625 12.867187-12.867188 22.210937-29.261719 26.457031-47.605469zm0 0" fill="#00d1fc"/><path d="m494.1875 365.472656h-481.34375c-7.09375 0-12.84375-5.75-12.84375-12.84375v-39.921875c0-7.09375 5.75-12.847656 12.84375-12.847656h481.34375c7.09375 0 12.84375 5.753906 12.84375 12.847656v39.921875c0 7.09375-5.75 12.84375-12.84375 12.84375zm0 0" fill="#fdd79b"/><path d="m459.117188 144.175781c0 18.683594-15.148438 33.832031-33.835938 33.832031s-33.835938-15.148437-33.835938-33.832031c0-18.6875 15.148438-33.835937 33.835938-33.835937s33.835938 15.148437 33.835938 33.835937zm0 0" fill="#43cd8e"/><path d="m445.910156 127.429688c0 15.039062-12.191406 27.230468-27.230468 27.230468-15.039063 0-27.234376-12.191406-27.234376-27.230468 0-15.039063 12.195313-27.230469 27.234376-27.230469 15.039062 0 27.230468 12.191406 27.230468 27.230469zm0 0" fill="#ea4444"/><path d="m445.90625 127.429688c0 15.039062-12.191406 27.230468-27.230469 27.230468-9.539062 0-17.929687-4.902344-22.796875-12.332031 2.867188 1.023437 5.957032 1.582031 9.179688 1.582031 15.042968 0 27.230468-12.1875 27.230468-27.230468 0-5.496094-1.625-10.621094-4.433593-14.898438 10.527343 3.769531 18.050781 13.832031 18.050781 25.648438zm0 0" fill="#d93131"/></svg>