<svg width="99" height="63" viewBox="0 0 99 63" fill="none" xmlns="http://www.w3.org/2000/svg">
<path d="M94.6494 48.1289H94.2514C95.2854 46.7067 95.7567 45.0895 95.5815 43.4128C95.188 39.646 91.5134 35.8838 88.1681 33.1911C88.1772 33.17 88.187 33.1458 88.196 33.1247C88.6281 32.065 88.3932 30.8421 87.5948 30.0098C86.9573 29.3459 86.2428 28.7016 85.4732 28.0951C84.844 27.5996 83.9323 27.7076 83.4368 28.3368C82.9406 28.9659 83.0486 29.8776 83.6778 30.3731C84.344 30.898 84.958 31.4524 85.5102 32.0295C85.3931 32.3172 85.245 32.6722 85.0713 33.0809C83.7473 36.1784 80.3068 43.6877 76.3135 48.1289H71.5316C72.2265 46.4121 73.0052 43.4754 73.8799 38.2495C74.6156 33.8543 75.1821 29.2197 75.5287 26.0965C76.46 26.4175 77.5416 26.8344 78.6754 27.3609C78.8733 27.4523 79.0802 27.4953 79.2841 27.4953C79.8317 27.4953 80.3559 27.1842 80.6014 26.6547C80.9383 25.9281 80.6218 25.0663 79.8952 24.7294C78.3717 24.0224 76.9359 23.4967 75.7901 23.1251C75.7002 22.11 75.0801 21.1976 74.1337 20.7557C72.0777 19.7912 67.5768 18.1726 60.5192 18.159C58.1498 18.1635 56.0697 18.3493 54.2728 18.631V14.0644C54.2728 10.2796 51.1934 7.20016 47.4085 7.20016H40.7021V2.0127C40.7021 1.21207 40.0533 0.5625 39.252 0.5625H18.6592C17.8578 0.5625 17.209 1.21207 17.209 2.0127C17.209 2.81332 17.8578 3.46289 18.6592 3.46289H37.8018V26.5338C36.2685 27.4923 34.7654 28.6404 33.4466 30.0113C32.6498 30.8429 32.4149 32.065 32.8469 33.1247C32.856 33.1458 32.8658 33.17 32.8749 33.1919C29.8491 35.6263 26.5575 38.9353 25.6639 42.3281H7.92773C7.44811 42.3281 7.05762 41.9376 7.05762 41.458V3.46289H12.375C13.1764 3.46289 13.8252 2.81332 13.8252 2.0127C13.8252 1.21207 13.1764 0.5625 12.375 0.5625H5.60742C4.80604 0.5625 4.15723 1.21207 4.15723 2.0127V41.458C4.15723 43.3055 5.49413 44.8441 7.25098 45.1643V48.1289H4.35059C1.95172 48.1289 0 50.0806 0 52.4795C0 54.8784 1.95172 56.8301 4.35059 56.8301H5.7041V57.3135C5.7041 60.0326 7.91565 62.2441 10.6348 62.2441H88.3652C91.0844 62.2441 93.2959 60.0326 93.2959 57.3135V56.8301H94.6494C97.0483 56.8301 99 54.8784 99 52.4795C99 50.0806 97.0483 48.1289 94.6494 48.1289ZM86.9724 35.9624C90.4167 38.8529 92.4787 41.628 92.6969 43.7141C92.8646 45.3237 91.9016 46.9166 90.0458 48.1289H80.0621C82.9504 44.3108 85.3908 39.47 86.9724 35.9624ZM72.9018 23.3812L72.8345 24.027C72.5362 26.8805 71.9063 32.4494 71.0346 37.6762C69.5973 46.2965 68.4908 47.8865 68.2679 48.1289H52.7743C52.5477 47.8804 51.4427 46.2799 50.0083 37.6762C49.1367 32.4494 48.506 26.8805 48.2077 24.0262L48.1963 23.9144C48.1963 23.9114 48.1956 23.9076 48.1956 23.9046L48.1412 23.3812C49.6208 22.687 53.7894 21.0722 60.5185 21.0586C67.2536 21.0714 71.4214 22.687 72.9018 23.3812ZM40.7369 10.1006H47.4078C49.5937 10.1006 51.3717 11.8793 51.3717 14.0644V19.2134C50.2349 19.4974 49.2689 19.807 48.4713 20.1039V14.8379C48.4713 13.8257 47.6472 13.0009 46.6344 13.0009H40.7369V10.1006ZM45.5709 15.9013V22.0397C45.4666 22.2391 45.3858 22.4499 45.3307 22.6689H40.7021V15.9013H45.5709ZM39.9166 28.6381C39.9672 28.6124 40.0171 28.5845 40.0639 28.552C40.0692 28.5482 40.0752 28.5452 40.0813 28.5415C41.993 27.4357 43.9281 26.6418 45.5142 26.0958C45.8609 29.219 46.4274 33.8543 47.1631 38.2495C48.0385 43.4754 48.8164 46.4121 49.5113 48.1289H44.7332C40.7286 43.6801 37.2927 36.1769 35.9724 33.0824C35.7979 32.6722 35.6499 32.3172 35.5381 32.0204C36.8425 30.6646 38.3682 29.549 39.9166 28.6381ZM34.0698 35.9631C35.6491 39.4678 38.088 44.307 40.9824 48.1289H30.9224C29.1769 46.962 28.238 45.4249 28.3347 43.8584C28.337 43.8123 28.3407 43.7662 28.346 43.7141C28.5643 41.628 30.6263 38.8537 34.0698 35.9631ZM10.1514 45.2285H25.5257C25.7047 46.2505 26.1284 47.2293 26.7697 48.1289H10.1514V45.2285ZM94.6494 53.9297H18.5867C17.7853 53.9297 17.1365 54.5793 17.1365 55.3799C17.1365 56.1805 17.7853 56.8301 18.5867 56.8301H90.3955V57.3135C90.3955 58.4328 89.4846 59.3438 88.3652 59.3438H10.6348C9.5154 59.3438 8.60449 58.4328 8.60449 57.3135V56.8301H12.375C13.1764 56.8301 13.8252 56.1805 13.8252 55.3799C13.8252 54.5793 13.1764 53.9297 12.375 53.9297H4.35059C3.55071 53.9297 2.90039 53.2794 2.90039 52.4795C2.90039 51.6796 3.55071 51.0293 4.35059 51.0293H94.6494C95.4493 51.0293 96.0996 51.6796 96.0996 52.4795C96.0996 53.2794 95.4493 53.9297 94.6494 53.9297Z" fill="black"/>
</svg>
